<?xml version="1.0" encoding="UTF-8" standalone="no"?>
<!DOCTYPE svg PUBLIC "-//W3C//DTD SVG 1.1//EN" "http://www.w3.org/Graphics/SVG/1.1/DTD/svg11.dtd">
<svg width="100%" height="100%" viewBox="0 0 390 390" version="1.1" xmlns="http://www.w3.org/2000/svg" xmlns:xlink="http://www.w3.org/1999/xlink" xml:space="preserve" xmlns:serif="http://www.serif.com/" style="fill-rule:evenodd;clip-rule:evenodd;stroke-linejoin:round;stroke-miterlimit:2;">
    <path d="M314.26,389.777L229.031,389.777C223.508,389.777 219.031,385.3 219.031,379.777C219.031,374.254 223.508,369.777 229.031,369.777L314.26,369.777C319.311,369.777 323.421,366.354 323.421,362.145L323.421,299.469L238.404,299.469C232.881,299.469 228.404,294.992 228.404,289.469C228.404,283.946 232.881,279.469 238.404,279.469L323.421,279.469L323.421,257.554C307.938,264.526 286.641,264.234 274.175,251.838C270.259,247.943 270.241,241.612 274.135,237.696C278.029,233.779 284.361,233.762 288.277,237.656C294.661,244.004 310.391,243.608 319.454,236.871C319.457,236.869 319.46,236.867 319.463,236.865C320.722,235.928 322.044,235.056 323.42,234.248L323.42,216.766C307.937,223.741 286.641,223.449 274.176,211.051C270.26,207.156 270.243,200.824 274.138,196.909C278.033,192.994 284.365,192.976 288.28,196.871C294.664,203.221 310.4,202.821 319.46,196.078C319.474,196.067 319.488,196.057 319.502,196.046C320.749,195.121 322.058,194.259 323.419,193.46L323.419,170.245L238.402,170.245C232.879,170.245 228.402,165.768 228.402,160.245C228.402,154.722 232.879,150.245 238.402,150.245L319.47,150.245L296.678,117.622C296.2,117.175 294.313,116.262 291.472,116.262L229.031,116.262C223.508,116.262 219.031,111.785 219.031,106.262L219.031,68.716C219.031,60.445 225.76,53.716 234.031,53.716L285.629,53.716C293.9,53.716 300.629,60.445 300.629,68.716L300.629,97.608C305.845,99.206 310.256,102.154 312.995,106.057L341.546,146.922C342.169,147.788 342.655,148.757 342.977,149.799C343.287,150.804 343.433,151.841 343.419,152.87L343.419,186.854C348.729,186.228 354.087,186.409 359.114,187.485C364.515,188.641 367.955,193.956 366.799,199.357C365.644,204.757 360.33,208.201 354.927,207.042C351.299,206.266 347.297,206.3 343.419,207.038L343.419,227.64C348.727,227.012 354.087,227.195 359.114,228.272C364.514,229.428 367.955,234.744 366.799,240.144C365.643,245.545 360.331,248.986 354.927,247.829C351.299,247.052 347.298,247.087 343.419,247.825L343.419,288.938C343.419,289.027 343.418,289.115 343.416,289.204C343.418,289.293 343.419,289.381 343.419,289.47L343.419,362.146C343.421,377.381 330.34,389.777 314.26,389.777ZM248.989,96.263L280.63,96.263L280.63,73.716L239.032,73.716L239.032,96.262L248.989,96.262L248.989,96.263ZM184.308,389.777L52.752,389.777C36.21,389.777 22.752,376.319 22.752,359.777L22.752,123.888C22.752,121.759 23.417,119.786 24.551,118.164C24.667,117.916 24.794,117.671 24.932,117.43L56.411,62.425C59.756,56.582 65.643,52.372 72.629,50.57L72.629,15C72.629,6.729 79.358,0 87.629,0L149.429,0C157.7,0 164.429,6.729 164.429,15L164.429,50.569C171.415,52.372 177.302,56.581 180.647,62.424L212.127,117.429C212.265,117.671 212.393,117.916 212.508,118.164C213.642,119.785 214.307,121.759 214.307,123.887L214.307,359.776C214.308,376.319 200.85,389.777 184.308,389.777ZM42.752,284.512L42.752,359.777C42.752,365.291 47.238,369.777 52.752,369.777L184.308,369.777C189.822,369.777 194.308,365.291 194.308,359.777L194.308,284.512L42.752,284.512ZM42.752,264.512L194.308,264.512L194.308,133.888L42.752,133.888L42.752,264.512ZM50.003,113.888L187.057,113.888L163.29,72.359C162.523,71.018 159.935,69.593 156.651,69.593L80.409,69.593C77.125,69.593 74.537,71.018 73.77,72.36L50.003,113.888ZM92.63,49.593L144.43,49.593L144.43,20L92.63,20L92.63,49.593ZM108.05,182.586C108.05,189.952 101.56,195.924 93.555,195.924C85.55,195.924 79.06,189.952 79.06,182.586C79.06,175.219 85.55,169.248 93.555,169.248C101.56,169.248 108.05,175.219 108.05,182.586ZM143.505,169.248C135.5,169.248 129.01,175.22 129.01,182.586C129.01,189.952 135.5,195.924 143.505,195.924C151.51,195.924 158,189.952 158,182.586C158,175.219 151.511,169.248 143.505,169.248ZM118.415,208.574C110.41,208.574 103.92,214.546 103.92,221.912C103.92,229.279 110.41,235.25 118.415,235.25C126.42,235.25 132.91,229.278 132.91,221.912C132.909,214.546 126.42,208.574 118.415,208.574Z" style="fill:rgb(255,154,0);fill-rule:nonzero;"/>
</svg>
