<?xml version="1.0" encoding="UTF-8" standalone="no"?>
<!DOCTYPE svg PUBLIC "-//W3C//DTD SVG 1.1//EN" "http://www.w3.org/Graphics/SVG/1.1/DTD/svg11.dtd">
<svg width="100%" height="100%" viewBox="0 0 512 512" version="1.1" xmlns="http://www.w3.org/2000/svg" xmlns:xlink="http://www.w3.org/1999/xlink" xml:space="preserve" xmlns:serif="http://www.serif.com/" style="fill-rule:evenodd;clip-rule:evenodd;stroke-linejoin:round;stroke-miterlimit:2;">
    <g>
        <g>
            <path d="M151.128,494.335L115.088,494.335L115.088,392.014C115.088,372.127 125.253,354.084 142.281,343.746C146.451,341.214 147.778,335.782 145.247,331.613C142.716,327.444 137.284,326.116 133.114,328.647C110.766,342.214 97.424,365.904 97.424,392.014L97.424,503.167C97.424,508.045 101.378,511.999 106.256,511.999L151.128,511.999C156.006,511.999 159.96,508.045 159.96,503.167C159.96,498.289 156.006,494.335 151.128,494.335Z" style="fill:rgb(255,182,0);fill-rule:nonzero;"/>
        </g>
    </g>
    <g>
        <g>
            <path d="M329.458,494.335L243.445,494.335L243.445,421.102L306.746,358.931C310.226,355.512 310.276,349.921 306.859,346.441C303.442,342.961 297.85,342.911 294.369,346.328L234.612,405.018L174.855,346.327C171.375,342.91 165.783,342.96 162.365,346.44C158.948,349.92 158.998,355.512 162.478,358.929L225.779,421.1L225.779,494.333L180.565,494.333C175.687,494.333 171.733,498.287 171.733,503.165C171.733,508.043 175.687,511.997 180.565,511.997L329.456,511.997C334.334,511.997 338.288,508.043 338.288,503.165C338.29,498.288 334.336,494.335 329.458,494.335Z" style="fill:rgb(255,182,0);fill-rule:nonzero;"/>
        </g>
    </g>
    <g>
        <g>
            <path d="M359.236,350.734C353.257,341.843 345.257,334.205 336.101,328.646C331.931,326.115 326.499,327.444 323.968,331.612C321.437,335.781 322.766,341.213 326.934,343.745C333.917,347.984 340.018,353.809 344.578,360.59C346.283,363.125 349.073,364.495 351.914,364.495C353.609,364.495 355.322,364.009 356.834,362.991C360.884,360.269 361.958,354.781 359.236,350.734Z" style="fill:rgb(255,182,0);fill-rule:nonzero;"/>
        </g>
    </g>
    <g>
        <g>
            <path d="M366.429,49.83C340.628,16.392 287.399,-3.431 233.964,0.491C233.822,0.502 233.679,0.516 233.537,0.533C230.754,0.874 171.112,8.621 160.243,44.411C155.23,43.129 148.838,41.991 141.864,41.959C126.559,41.89 105.511,47.11 92.512,72.382C79.881,96.947 74.587,139.851 86.346,170.512C79.608,177.106 75.416,186.293 75.416,196.442C75.416,212.781 86.133,226.621 101.062,231.168C99.667,263.764 114.789,295.383 141.338,314.666L189.678,349.793C203.114,359.558 218.857,364.438 234.608,364.438C250.355,364.438 266.108,359.556 279.548,349.793L327.887,314.667C331.84,311.796 335.604,308.601 339.079,305.17C342.98,301.913 374.315,274.89 393.778,231.639C412.76,189.458 423.424,123.675 366.429,49.83ZM102.687,212.759C96.94,209.581 93.08,203.468 93.08,196.444C93.08,188.171 98.502,181.148 105.975,178.719L102.687,212.759ZM325.428,293.801C322.936,296.157 320.278,298.364 317.505,300.378L269.167,335.504C248.493,350.518 220.722,350.518 200.061,335.505L151.719,300.376C128.807,283.735 116.267,255.886 118.991,227.693L124.674,168.844C148.653,159.157 168.637,133.234 178.745,118.048C190.886,132.569 216.103,156.063 252.222,156.058C253.968,156.058 255.748,156.003 257.545,155.888C284.196,154.202 304.214,161.816 317.051,178.519C339.137,207.259 336.917,257.929 325.428,293.801ZM377.921,223.832C369.638,242.412 358.762,257.907 349.237,269.382C351.079,257.467 351.862,245.39 351.494,233.772C350.644,206.877 343.576,184.05 331.056,167.759C314.415,146.107 289.315,136.184 256.429,138.264C212.804,141.011 185.887,98.151 185.63,97.733C183.992,95.048 181.05,93.432 177.904,93.502C174.759,93.568 171.885,95.303 170.36,98.053C170.097,98.526 143.779,145.499 114.042,153.847C110.911,154.725 108.562,157.243 107.838,160.351C105.781,160.571 103.777,160.969 101.835,161.52C92.622,134.564 99.021,98.353 108.221,80.461C115.388,66.527 126.202,59.71 141.281,59.624C153.428,59.525 163.647,64.076 163.723,64.112C166.457,65.357 169.636,65.127 172.163,63.501C174.69,61.876 176.216,59.078 176.216,56.074C176.216,27.084 232.036,18.585 235.522,18.09C283.198,14.663 330.157,31.736 352.446,60.623C393.763,114.154 402.333,169.066 377.921,223.832Z" style="fill:rgb(255,182,0);fill-rule:nonzero;"/>
        </g>
    </g>
    <g>
        <g>
            <path d="M182.187,198.418C177.309,198.418 173.355,202.372 173.355,207.25L173.355,221.376C173.355,226.254 177.309,230.208 182.187,230.208C187.065,230.208 191.019,226.254 191.019,221.376L191.019,207.25C191.019,202.373 187.065,198.418 182.187,198.418Z" style="fill:rgb(255,182,0);fill-rule:nonzero;"/>
        </g>
    </g>
    <g>
        <g>
            <path d="M313.468,179.219C298.892,164.642 275.172,164.642 260.594,179.219C257.145,182.668 257.145,188.261 260.594,191.709C264.043,195.158 269.636,195.158 273.084,191.709C280.775,184.019 293.288,184.019 300.979,191.709C302.703,193.433 304.964,194.296 307.224,194.296C309.484,194.296 311.745,193.434 313.469,191.709C316.917,188.259 316.917,182.667 313.468,179.219Z" style="fill:rgb(255,182,0);fill-rule:nonzero;"/>
        </g>
    </g>
    <g>
        <g>
            <path d="M208.624,179.219C194.047,164.64 170.326,164.642 155.749,179.219C152.3,182.668 152.3,188.261 155.749,191.709C159.198,195.158 164.791,195.158 168.239,191.709C175.931,184.019 188.444,184.019 196.134,191.709C197.858,193.433 200.119,194.296 202.379,194.296C204.639,194.296 206.9,193.434 208.624,191.709C212.073,188.261 212.073,182.668 208.624,179.219Z" style="fill:rgb(255,182,0);fill-rule:nonzero;"/>
        </g>
    </g>
    <g>
        <g>
            <path d="M287.032,198.418C282.154,198.418 278.2,202.372 278.2,207.25L278.2,221.376C278.2,226.254 282.154,230.208 287.032,230.208C291.91,230.208 295.864,226.254 295.864,221.376L295.864,207.25C295.864,202.373 291.91,198.418 287.032,198.418Z" style="fill:rgb(255,182,0);fill-rule:nonzero;"/>
        </g>
    </g>
    <g>
        <g>
            <path d="M264.184,272.568C260.736,269.119 255.144,269.119 251.694,272.568C242.273,281.989 226.943,281.989 217.523,272.568C214.074,269.119 208.481,269.119 205.033,272.568C201.584,276.017 201.584,281.61 205.033,285.058C213.187,293.212 223.898,297.29 234.608,297.29C245.318,297.29 256.029,293.213 264.183,285.058C267.633,281.608 267.633,276.016 264.184,272.568Z" style="fill:rgb(255,182,0);fill-rule:nonzero;"/>
        </g>
    </g>
    <g>
        <g>
            <path d="M243.841,231.561L243.439,231.561L243.439,213.308C243.439,208.43 239.485,204.476 234.607,204.476C229.729,204.476 225.775,208.43 225.775,213.308L225.775,231.561L225.373,231.561C220.495,231.561 216.541,235.515 216.541,240.393C216.541,245.271 220.495,249.225 225.373,249.225L243.84,249.225C248.718,249.225 252.672,245.271 252.672,240.393C252.672,235.515 248.718,231.561 243.841,231.561Z" style="fill:rgb(255,182,0);fill-rule:nonzero;"/>
        </g>
    </g>
    <g>
        <g>
            <path d="M427.897,455.654C423.019,455.654 419.065,459.608 419.065,464.486L419.065,494.334L366.453,494.334L366.453,424.098L419.064,424.098L419.064,435.046C419.064,439.924 423.018,443.878 427.896,443.878C432.774,443.878 436.728,439.924 436.728,435.046L436.728,415.266C436.729,410.388 432.775,406.434 427.897,406.434L418.494,406.434L418.494,357.04C418.494,345.548 409.145,336.199 397.653,336.199L387.865,336.199C376.373,336.199 367.024,345.548 367.024,357.04L367.024,406.435L357.621,406.435C352.743,406.435 348.789,410.389 348.789,415.267L348.789,503.167C348.789,508.045 352.743,511.999 357.621,511.999L427.897,511.999C432.775,511.999 436.729,508.045 436.729,503.167L436.729,464.487C436.729,459.609 432.774,455.654 427.897,455.654ZM384.689,357.04C384.689,355.288 386.114,353.863 387.866,353.863L397.654,353.863C399.406,353.863 400.831,355.288 400.831,357.04L400.831,406.435L384.689,406.435L384.689,357.04Z" style="fill:rgb(255,182,0);fill-rule:nonzero;"/>
        </g>
    </g>
    <g>
        <g>
            <path d="M98.651,333.185L95.275,333.185L95.275,299.311C95.275,294.78 91.86,291.049 87.464,290.543L87.464,256.605C87.464,254.157 86.448,251.819 84.659,250.148L57.575,224.868C55.002,222.467 51.254,221.823 48.029,223.224C44.804,224.625 42.717,227.808 42.717,231.325L42.717,290.544C38.321,291.05 34.906,294.781 34.906,299.312L34.906,333.187L31.53,333.187C26.652,333.187 22.698,337.141 22.698,342.019L22.698,440.936C22.698,445.814 26.652,449.768 31.53,449.768L80.989,449.768C85.867,449.768 89.821,445.814 89.821,440.936C89.821,436.058 85.865,432.104 80.988,432.104L40.361,432.104L40.361,350.85L98.652,350.85C103.53,350.85 107.484,346.896 107.484,342.018C107.483,337.14 103.529,333.185 98.651,333.185ZM60.38,251.649L69.801,260.442L69.801,290.479L60.38,290.479L60.38,251.649ZM77.613,333.185L52.57,333.185L52.57,308.142L77.613,308.142L77.613,333.185Z" style="fill:rgb(255,182,0);fill-rule:nonzero;"/>
        </g>
    </g>
    <g>
        <g>
            <path d="M486.712,32.609C483.263,29.159 477.67,29.16 474.222,32.609L458.635,48.196C455.186,51.645 455.186,57.238 458.635,60.686C460.359,62.412 462.62,63.273 464.88,63.273C467.14,63.273 469.401,62.411 471.125,60.686L486.712,45.099C490.162,41.65 490.162,36.057 486.712,32.609Z" style="fill:rgb(255,182,0);fill-rule:nonzero;"/>
        </g>
    </g>
    <g>
        <g>
            <path d="M440.265,79.057C436.816,75.608 431.223,75.609 427.775,79.057L412.188,94.644C408.739,98.093 408.739,103.686 412.188,107.134C413.912,108.859 416.173,109.721 418.433,109.721C420.693,109.721 422.954,108.859 424.678,107.134L440.265,91.547C443.714,88.097 443.714,82.505 440.265,79.057Z" style="fill:rgb(255,182,0);fill-rule:nonzero;"/>
        </g>
    </g>
    <g>
        <g>
            <path d="M486.714,94.644L471.127,79.057C467.678,75.608 462.085,75.608 458.637,79.057C455.188,82.506 455.188,88.097 458.637,91.547L474.224,107.134C475.948,108.859 478.209,109.721 480.469,109.721C482.729,109.721 484.99,108.859 486.714,107.134C490.163,103.684 490.163,98.093 486.714,94.644Z" style="fill:rgb(255,182,0);fill-rule:nonzero;"/>
        </g>
    </g>
    <g>
        <g>
            <path d="M440.265,48.196L424.678,32.609C421.23,29.159 415.638,29.16 412.188,32.609C408.739,36.058 408.739,41.649 412.188,45.099L427.775,60.686C429.499,62.411 431.76,63.273 434.02,63.273C436.28,63.273 438.541,62.411 440.265,60.686C443.714,57.236 443.714,51.645 440.265,48.196Z" style="fill:rgb(255,182,0);fill-rule:nonzero;"/>
        </g>
    </g>
    <g>
        <g>
            <circle cx="265.451" cy="432.927" r="8.832" style="fill:rgb(255,182,0);"/>
        </g>
    </g>
</svg>
